<?xml version="1.0" standalone="no"?>
<!DOCTYPE svg PUBLIC "-//W3C//DTD SVG 20010904//EN"
 "http://www.w3.org/TR/2001/REC-SVG-20010904/DTD/svg10.dtd">
<svg version="1.0" xmlns="http://www.w3.org/2000/svg"
 width="200.000000pt" height="200.000000pt" viewBox="0 0 200.000000 200.000000"
 preserveAspectRatio="xMidYMid meet">
<metadata>
Created by potrace 1.11, written by Peter Selinger 2001-2013
</metadata>
<g transform="translate(0.000000,200.000000) scale(0.100000,-0.100000)"
fill="#000000" stroke="none">
<path d="M850 1734 c-189 -40 -364 -158 -470 -314 -56 -82 -87 -155 -117 -275
-13 -53 -11 -224 3 -295 59 -281 266 -500 546 -578 88 -24 300 -23 383 2 286
87 482 297 539 578 80 389 -154 762 -549 875 -72 21 -256 25 -335 7z m287 -44
c117 -21 252 -91 344 -177 331 -309 286 -851 -91 -1098 -475 -312 -1097 27
-1092 595 3 342 256 633 597 684 85 13 158 12 242 -4z"/>
<path d="M841 1579 c-230 -59 -415 -261 -446 -489 -54 -384 230 -707 613 -699
331 6 600 290 586 619 -2 47 -5 92 -7 100 -31 125 -83 225 -157 300 -156 161
-375 224 -589 169z m94 -45 c-43 -23 -93 -73 -120 -119 -77 -134 -28 -293 120
-385 146 -91 178 -115 211 -158 87 -114 76 -260 -27 -363 -77 -77 -136 -89
-270 -55 -191 50 -337 195 -400 400 -17 57 -19 202 -3 266 36 143 140 285 259
354 64 38 164 72 218 74 l42 2 -30 -16z m165 -204 c42 -42 10 -120 -49 -120
-70 1 -99 86 -44 128 25 18 70 15 93 -8z"/>
<path d="M865 756 c-54 -54 -9 -137 66 -121 27 6 57 44 54 70 -3 27 -18 54
-33 60 -43 17 -63 15 -87 -9z"/>
</g>
</svg>
